<svg xmlns="http://www.w3.org/2000/svg" opacity=".25" width="800" height="800"><g stroke-width=".5" stroke="#0d466dff" fill="none"><circle r="2.5"/><circle r="2.5" cx="66.667"/><circle r="2.5" cx="133.333"/><circle r="2.5" cx="200"/><circle r="2.5" cx="266.667"/><circle r="2.5" cx="333.333"/><circle r="2.5" cx="400"/><circle r="2.5" cx="466.667"/><circle r="2.5" cx="533.333"/><circle r="2.5" cx="600"/><circle r="2.5" cx="666.667"/><circle r="2.5" cx="733.333"/><circle r="2.5" cx="800"/><circle r="2.5" cy="66.667"/><circle r="2.5" cx="66.667" cy="66.667"/><circle r="2.5" cx="133.333" cy="66.667"/><circle r="2.5" cx="200" cy="66.667"/><circle r="2.5" cx="266.667" cy="66.667"/><circle r="2.5" cx="333.333" cy="66.667"/><circle r="2.5" cx="400" cy="66.667"/><circle r="2.5" cx="466.667" cy="66.667"/><circle r="2.5" cx="533.333" cy="66.667"/><circle r="2.5" cx="600" cy="66.667"/><circle r="2.5" cx="666.667" cy="66.667"/><circle r="2.5" cx="733.333" cy="66.667"/><circle r="2.5" cx="800" cy="66.667"/><circle r="2.5" cy="133.333"/><circle r="2.5" cx="66.667" cy="133.333"/><circle r="2.5" cx="133.333" cy="133.333"/><circle r="2.5" cx="200" cy="133.333"/><circle r="2.5" cx="266.667" cy="133.333"/><circle r="2.5" cx="333.333" cy="133.333"/><circle r="2.5" cx="400" cy="133.333"/><circle r="2.5" cx="466.667" cy="133.333"/><circle r="2.5" cx="533.333" cy="133.333"/><circle r="2.5" cx="600" cy="133.333"/><circle r="2.5" cx="666.667" cy="133.333"/><circle r="2.5" cx="733.333" cy="133.333"/><circle r="2.5" cx="800" cy="133.333"/><circle r="2.5" cy="200"/><circle r="2.5" cx="66.667" cy="200"/><circle r="2.5" cx="133.333" cy="200"/><circle r="2.5" cx="200" cy="200"/><circle r="2.5" cx="266.667" cy="200"/><circle r="2.5" cx="333.333" cy="200"/><circle r="2.5" cx="400" cy="200"/><circle r="2.5" cx="466.667" cy="200"/><circle r="2.5" cx="533.333" cy="200"/><circle r="2.5" cx="600" cy="200"/><circle r="2.5" cx="666.667" cy="200"/><circle r="2.5" cx="733.333" cy="200"/><circle r="2.5" cx="800" cy="200"/><circle r="2.5" cy="266.667"/><circle r="2.5" cx="66.667" cy="266.667"/><circle r="2.5" cx="133.333" cy="266.667"/><circle r="2.5" cx="200" cy="266.667"/><circle r="2.5" cx="266.667" cy="266.667"/><circle r="2.5" cx="333.333" cy="266.667"/><circle r="2.5" cx="400" cy="266.667"/><circle r="2.5" cx="466.667" cy="266.667"/><circle r="2.5" cx="533.333" cy="266.667"/><circle r="2.5" cx="600" cy="266.667"/><circle r="2.5" cx="666.667" cy="266.667"/><circle r="2.5" cx="733.333" cy="266.667"/><circle r="2.5" cx="800" cy="266.667"/><circle r="2.5" cy="333.333"/><circle r="2.5" cx="66.667" cy="333.333"/><circle r="2.5" cx="133.333" cy="333.333"/><circle r="2.5" cx="200" cy="333.333"/><circle r="2.5" cx="266.667" cy="333.333"/><circle r="2.5" cx="333.333" cy="333.333"/><circle r="2.5" cx="400" cy="333.333"/><circle r="2.5" cx="466.667" cy="333.333"/><circle r="2.5" cx="533.333" cy="333.333"/><circle r="2.5" cx="600" cy="333.333"/><circle r="2.5" cx="666.667" cy="333.333"/><circle r="2.5" cx="733.333" cy="333.333"/><circle r="2.5" cx="800" cy="333.333"/><circle r="2.5" cy="400"/><circle r="2.5" cx="66.667" cy="400"/><circle r="2.5" cx="133.333" cy="400"/><circle r="2.5" cx="200" cy="400"/><circle r="2.5" cx="266.667" cy="400"/><circle r="2.5" cx="333.333" cy="400"/><circle r="2.5" cx="400" cy="400"/><circle r="2.5" cx="466.667" cy="400"/><circle r="2.5" cx="533.333" cy="400"/><circle r="2.5" cx="600" cy="400"/><circle r="2.5" cx="666.667" cy="400"/><circle r="2.5" cx="733.333" cy="400"/><circle r="2.5" cx="800" cy="400"/><circle r="2.5" cy="466.667"/><circle r="2.5" cx="66.667" cy="466.667"/><circle r="2.5" cx="133.333" cy="466.667"/><circle r="2.5" cx="200" cy="466.667"/><circle r="2.5" cx="266.667" cy="466.667"/><circle r="2.5" cx="333.333" cy="466.667"/><circle r="2.5" cx="400" cy="466.667"/><circle r="2.5" cx="466.667" cy="466.667"/><circle r="2.5" cx="533.333" cy="466.667"/><circle r="2.5" cx="600" cy="466.667"/><circle r="2.5" cx="666.667" cy="466.667"/><circle r="2.5" cx="733.333" cy="466.667"/><circle r="2.5" cx="800" cy="466.667"/><circle r="2.5" cy="533.333"/><circle r="2.5" cx="66.667" cy="533.333"/><circle r="2.5" cx="133.333" cy="533.333"/><circle r="2.5" cx="200" cy="533.333"/><circle r="2.5" cx="266.667" cy="533.333"/><circle r="2.5" cx="333.333" cy="533.333"/><circle r="2.5" cx="400" cy="533.333"/><circle r="2.5" cx="466.667" cy="533.333"/><circle r="2.5" cx="533.333" cy="533.333"/><circle r="2.5" cx="600" cy="533.333"/><circle r="2.5" cx="666.667" cy="533.333"/><circle r="2.5" cx="733.333" cy="533.333"/><circle r="2.5" cx="800" cy="533.333"/><circle r="2.5" cy="600"/><circle r="2.5" cx="66.667" cy="600"/><circle r="2.5" cx="133.333" cy="600"/><circle r="2.5" cx="200" cy="600"/><circle r="2.5" cx="266.667" cy="600"/><circle r="2.5" cx="333.333" cy="600"/><circle r="2.5" cx="400" cy="600"/><circle r="2.5" cx="466.667" cy="600"/><circle r="2.5" cx="533.333" cy="600"/><circle r="2.5" cx="600" cy="600"/><circle r="2.5" cx="666.667" cy="600"/><circle r="2.5" cx="733.333" cy="600"/><circle r="2.5" cx="800" cy="600"/><circle r="2.5" cy="666.667"/><circle r="2.5" cx="66.667" cy="666.667"/><circle r="2.5" cx="133.333" cy="666.667"/><circle r="2.5" cx="200" cy="666.667"/><circle r="2.5" cx="266.667" cy="666.667"/><circle r="2.5" cx="333.333" cy="666.667"/><circle r="2.5" cx="400" cy="666.667"/><circle r="2.5" cx="466.667" cy="666.667"/><circle r="2.5" cx="533.333" cy="666.667"/><circle r="2.5" cx="600" cy="666.667"/><circle r="2.5" cx="666.667" cy="666.667"/><circle r="2.5" cx="733.333" cy="666.667"/><circle r="2.5" cx="800" cy="666.667"/><circle r="2.5" cy="733.333"/><circle r="2.5" cx="66.667" cy="733.333"/><circle r="2.5" cx="133.333" cy="733.333"/><circle r="2.5" cx="200" cy="733.333"/><circle r="2.5" cx="266.667" cy="733.333"/><circle r="2.5" cx="333.333" cy="733.333"/><circle r="2.5" cx="400" cy="733.333"/><circle r="2.5" cx="466.667" cy="733.333"/><circle r="2.5" cx="533.333" cy="733.333"/><circle r="2.5" cx="600" cy="733.333"/><circle r="2.5" cx="666.667" cy="733.333"/><circle r="2.5" cx="733.333" cy="733.333"/><circle r="2.5" cx="800" cy="733.333"/><circle r="2.5" cy="800"/><circle r="2.5" cx="66.667" cy="800"/><circle r="2.5" cx="133.333" cy="800"/><circle r="2.5" cx="200" cy="800"/><circle r="2.5" cx="266.667" cy="800"/><circle r="2.5" cx="333.333" cy="800"/><circle r="2.5" cx="400" cy="800"/><circle r="2.5" cx="466.667" cy="800"/><circle r="2.5" cx="533.333" cy="800"/><circle r="2.5" cx="600" cy="800"/><circle r="2.5" cx="666.667" cy="800"/><circle r="2.5" cx="733.333" cy="800"/><circle r="2.5" cx="800" cy="800"/></g></svg>