<svg xmlns="http://www.w3.org/2000/svg" viewBox="0 0 500 500"><path fill="#ebebeb" d="M416.78 398.49h33.12v.25h-33.12zm-94.25 2.72h8.69v.25h-8.69zm74.06-12h19.19v.25h-19.19zm-344.13 1.68h43.19v.25H52.46zm52.1 0h6.33v.25h-6.33zm26.91 4.22h93.68v.25h-93.68zM238.4 337.8H45.3a5.71 5.71 0 01-5.71-5.71V60.66A5.71 5.71 0 0145.3 55h193.1a5.71 5.71 0 015.71 5.71v271.38a5.71 5.71 0 01-5.71 5.71zM45.3 55.2a5.47 5.47 0 00-5.46 5.46v271.43a5.47 5.47 0 005.46 5.46h193.1a5.47 5.47 0 005.46-5.46V60.66a5.47 5.47 0 00-5.46-5.46zm409.4 282.6H261.6a5.71 5.71 0 01-5.71-5.71V60.66A5.71 5.71 0 01261.6 55h193.1a5.71 5.71 0 015.71 5.71v271.38a5.71 5.71 0 01-5.71 5.71zM261.6 55.2a5.47 5.47 0 00-5.46 5.46v271.43a5.47 5.47 0 005.46 5.46h193.1a5.47 5.47 0 005.46-5.46V60.66a5.47 5.47 0 00-5.46-5.46zM0 382.4h500v.25H0z"/><path d="M396.3 330.54h25.25a8.21 8.21 0 008.22-8.21v-36.91a1.5 1.5 0 00-1.5-1.5 1.5 1.5 0 00-1.5 1.5v36.91a5.22 5.22 0 01-5.22 5.21H396.3z" fill="#e0e0e0"/><path d="M389.08 365.93v-34.38l-2-.64a5.45 5.45 0 01-3.82-5.2h19.04a5.45 5.45 0 01-3.82 5.2l-2 .64v34.38L412.3 373v3l-19.53-6.82-19.52 6.82v-3z" fill="#e0e0e0"/><path d="M367.87 327.54h49.81a5.41 5.41 0 005.41-5.4 5.41 5.41 0 00-5.41-5.41h-49.81a5.41 5.41 0 00-5.41 5.41 5.41 5.41 0 005.41 5.4z" fill="#f0f0f0"/><path d="M426.47 298.41l2.69-38.41a5.41 5.41 0 00-5-5.77 5.4 5.4 0 00-5.76 5l-2.69 38.44a5.4 5.4 0 005 5.77 5.41 5.41 0 005.76-5.03z" fill="#ebebeb"/><path d="M408.89 378.15a3.42 3.42 0 103.41-3.42 3.42 3.42 0 00-3.41 3.42zm-39.06 0a3.42 3.42 0 103.42-3.42 3.42 3.42 0 00-3.42 3.42zm-269.57-47.61H75a8.21 8.21 0 01-8.22-8.21v-36.91a1.5 1.5 0 011.5-1.5 1.5 1.5 0 011.5 1.5v36.91a5.22 5.22 0 005.22 5.21h25.25z" fill="#e0e0e0"/><path d="M107.48 365.93v-34.38l2-.64a5.45 5.45 0 003.82-5.2h-19a5.45 5.45 0 003.82 5.2l2 .64v34.38L84.26 373v3l19.53-6.82 19.53 6.82v-3z" fill="#e0e0e0"/><path d="M128.69 327.54H78.88a5.41 5.41 0 01-5.41-5.4 5.41 5.41 0 015.41-5.41h49.81a5.41 5.41 0 015.41 5.41 5.41 5.41 0 01-5.41 5.4z" fill="#f0f0f0"/><path d="M70.09 298.41L67.4 260a5.41 5.41 0 015-5.77 5.4 5.4 0 015.76 5l2.69 38.44a5.4 5.4 0 01-5 5.77 5.41 5.41 0 01-5.76-5.03z" fill="#ebebeb"/><path d="M87.67 378.15a3.42 3.42 0 11-3.41-3.42 3.42 3.42 0 013.41 3.42zm39.06 0a3.42 3.42 0 11-3.41-3.42 3.42 3.42 0 013.41 3.42z" fill="#e0e0e0"/><path fill="#ebebeb" d="M207.57 382.69h-19.51l-2-36.98h23.51l-2 36.98z"/><path fill="#e0e0e0" d="M192.56 382.69h-8v-1.64l8-1v2.64zM189 342.71h17.56a3 3 0 013 3h-23.5a3 3 0 013-3zm-21.44-55.92h-31.21v-3.74l31.21-2v5.74z"/><path fill="#f0f0f0" d="M121.4 290.6h92.33v12.78H121.4z"/><path fill="#fafafa" d="M102.59 286.79h130.28v7.62H102.59z"/><path fill="#e6e6e6" d="M220.77 382.69h5.88l-10.18-88.28h-6.9l11.2 88.28zm-94.88-88.28h-6.9l-10.19 88.28h5.89l11.2-88.28z"/><path d="M199.18 284.89l-8-39.74c-.39-1.9-3.28-1.09-2.9.79l7.62 37.85h-16.5a1.5 1.5 0 000 3h18.33a1.53 1.53 0 001.45-1.9z" fill="#e0e0e0"/><path d="M180.5 274.23l5.14-73.49a13.65 13.65 0 015.67 12.06l-3.51 50.28a13.67 13.67 0 01-7.3 11.15z" fill="#fafafa"/><rect x="209.29" y="265.43" width="14.16" height="21.36" rx="2.9" fill="#f5f5f5"/><path d="M214.89 257.47c-2.21 0-4 .55-4 1.23s1.8-.24 4-.24h.85v4.85H217v-4.66c1.14.22 1.89.44 1.89 0 0-.65-1.79-1.18-4-1.18z" fill="#e0e0e0"/><path fill="#f0f0f0" d="M214.11 261.77h4.51v4.51h-4.51zm161.05 41.61h-92.33V290.6h92.33z"/><path fill="#fafafa" d="M393.98 294.41H263.7v-7.62h130.28z"/><path fill="#e6e6e6" d="M275.79 382.69h-5.88l10.18-88.28h6.9l-11.2 88.28zm94.89-88.28h6.89l10.19 88.28h-5.89l-11.19-88.28z"/><path fill="#e0e0e0" d="M348.52 286.79h31.21v-3.74l-31.21-2v5.74z"/><path d="M285.73 219.71v67.08h4.33l1-6a4.54 4.54 0 014.47-3.76h40.37a4.54 4.54 0 014.47 3.76l1 6h4.33v-67.08z" fill="#f5f5f5"/><path d="M305.13 284.89l8-39.74c.39-1.9 3.28-1.09 2.9.79l-7.62 37.85h16.5a1.5 1.5 0 010 3h-18.33a1.53 1.53 0 01-1.45-1.9z" fill="#e0e0e0"/><path d="M323.81 274.23l-5.14-73.49A13.65 13.65 0 00313 212.8l3.51 50.28a13.65 13.65 0 007.3 11.15z" fill="#e0e0e0"/><path fill="#ebebeb" d="M53.83 147.94h163.83v99.83H53.83z"/><path fill="#e0e0e0" d="M217.68 147.9h1.2v99.83h-1.2zm-158.89 4.37h.99v89.83h-.99z"/><path fill="#fff" d="M58.69 152.27h153.63v89.83H58.69z"/><path fill="#f5f5f5" d="M113.11 196.12v-4.28h9.98v4.28zm1.95 31.26v-3.33h9.98v3.33z"/><path fill="#f0f0f0" d="M84.26 190.44h32.42V236H84.26z"/><path fill="#f5f5f5" d="M112.82 234.74v-3.33h9.98v3.33zm1.66-30.46v-3.33h9.98v3.33zm-2.19 8.27v-3.33h9.98v3.33z"/><path fill="#e6e6e6" d="M88.08 196.04h22.1v3.92h-22.1zm22.45 16.75h-22.1l-.35-1.78h22.09l.36 1.78zm-22.45-8.91h7.84v3.92h-7.84z"/><path fill="#f5f5f5" d="M150.03 182.21h12.66v18.18h-12.66zm-83.94 28.81h12.66v18.18H66.09zm1.72-52.24h12.66v12.66H67.81zm60.02 58.04h12.66v12.66h-12.66zm42.42-33.04h32.42v45.56h-32.42z"/><path fill="#e0e0e0" d="M174.69 190.37h23.29v.5h-23.29z"/><path fill="#e0e0e0" d="M186.08 190.86h.5v33.74h-.5zm10.7 0h.5v33.74h-.5zm-20.2 0h.5v33.74h-.5zm-1.67 0h.5v33.74h-.5z"/><path fill="#e0e0e0" d="M175.16 192.64h21.62v.5h-21.62z"/><ellipse cx="245.18" cy="412.39" rx="193.89" ry="11.32" fill="#f5f5f5"/><path d="M275.2 205.07A22.23 22.23 0 01253 227.3h-8.08v21.18H223v8.69a22.23 22.23 0 01-44.45 0v-8.69h-20.47V227.3h-9.3a22.23 22.23 0 110-44.46h9.3v-21.18h21.18V171a22.23 22.23 0 1044.45 0v-9.3h21.18v21.18H253a22.23 22.23 0 0122.2 22.19z" fill="#8acef8"/><path d="M275.2 205.07A22.23 22.23 0 01253 227.3h-8.08v21.18H223v8.69a22.23 22.23 0 01-44.45 0v-8.69h-20.47V227.3h-9.3a22.23 22.23 0 110-44.46h9.3v-21.18h21.18V171a22.23 22.23 0 1044.45 0v-9.3h21.18v21.18H253a22.23 22.23 0 0122.2 22.19z" fill="#fff" opacity=".5"/><path d="M253.08 227.19h-9.3v21.18h86.82v-21.18h8.07a22.23 22.23 0 000-44.46h-8.07v-21.18h-21.18v-9.3a22.23 22.23 0 00-44.46 0v9.3h-21.18v21.18h9.3a22.23 22.23 0 010 44.46z" fill="#8acef8"/><path d="M253.08 227.19h-9.3v21.18h86.82v-21.18h8.07a22.23 22.23 0 000-44.46h-8.07v-21.18h-21.18v-9.3a22.23 22.23 0 00-44.46 0v9.3h-21.18v21.18h9.3a22.23 22.23 0 010 44.46z" fill="#fff" opacity=".3"/><path d="M258.38 151.73l-1.87-.47a28.1 28.1 0 01-5.85-1.89l-.25-.12c-1.84-.89-4.14-2-4.63-5.87a1.05 1.05 0 00-.89-1c-17.14-.83-23.11-9.9-23.12-20 0-9.9 6.51-19.25 25-19.47 17.14-.21 25.72 10.34 25.2 21.21-.34 6.94-5.78 16.45-16.13 18.61-1.27.43-3.53.51-4.32 1.65a1.72 1.72 0 000 1.85 6.77 6.77 0 001.35 1.51c1.84 1.58 5.51 3.99 5.51 3.99z" fill="#fff"/><path d="M258.38 152.23h-.12l-1.87-.46a28.87 28.87 0 01-5.95-1.93l-.24-.12c-1.85-.89-4.39-2.11-4.91-6.26 0-.09-.09-.58-.43-.6-20.51-1-23.58-13.25-23.59-20.46 0-5.91 2.47-19.69 25.5-20 10.87-.11 17 3.88 20.28 7.28a19.3 19.3 0 015.43 14.46A21.2 21.2 0 01256 143.22a9.91 9.91 0 01-1.28.32c-1.07.22-2.28.47-2.73 1.13a1.2 1.2 0 000 1.29 6.37 6.37 0 001.25 1.4c1.79 1.54 5.42 3.92 5.46 3.95a.49.49 0 01.18.61.5.5 0 01-.5.31zm-11.09-48.83h-.51c-22.14.27-24.52 13.35-24.51 19 0 6.86 2.95 18.51 22.64 19.46a1.53 1.53 0 011.37 1.48c.46 3.6 2.52 4.6 4.35 5.48l.25.12a24.33 24.33 0 004.92 1.65c-1.11-.77-2.38-1.7-3.25-2.45a7.15 7.15 0 01-1.44-1.63 2.16 2.16 0 010-2.39c.67-1 2.09-1.28 3.35-1.54.45-.1.89-.19 1.22-.3a20.19 20.19 0 0015.79-18.16 18.29 18.29 0 00-5.15-13.72c-3.08-3.22-8.88-7-19.03-7z" fill="#8acef8"/><path d="M238 147.53c1.19-1.35 1.75-2.7 1.45-3.94-.62-2.61-2.93-2.57-4.42-3.07-10.35-2.17-15.79-9.67-16.13-16.61-.52-10.87 8.06-21.43 25.2-21.22 18.5.23 25 9.58 25 19.47 0 10.07-6 19.14-23.12 20-.57 0-.83.55-.9 1-.48 3.87-2.78 5-4.62 5.87l-.25.12a28.7 28.7 0 01-5.85 1.89l-1.87.46s3.88-2.15 5.51-3.97z" fill="#fff"/><path d="M232.46 152a.5.5 0 01-.47-.31.5.5 0 01.22-.62s3.86-2.15 5.38-3.88c1.13-1.3 1.58-2.47 1.34-3.49-.43-1.81-1.74-2.12-3.12-2.45-.34-.08-.68-.16-1-.26-10.9-2.28-16.14-10.22-16.47-17.06a19.33 19.33 0 015.43-14.47c3.28-3.39 9.41-7.42 20.28-7.28 23 .29 25.51 14.06 25.5 20 0 7.21-3.08 19.47-23.59 20.46-.34 0-.42.5-.43.6-.52 4.14-3.06 5.37-4.91 6.26l-.24.12a29.49 29.49 0 01-6 1.93l-1.88.46zm11.09-48.82c-10.16 0-16 3.78-19 7a18.29 18.29 0 00-5.15 13.72c.31 6.46 5.3 14 15.73 16.14.33.11.64.18 1 .26 1.38.33 3.28.78 3.85 3.18.32 1.36-.2 2.83-1.56 4.39a16.45 16.45 0 01-2.92 2.41 23.89 23.89 0 004.54-1.56l.25-.12c1.82-.88 3.89-1.88 4.35-5.48a1.51 1.51 0 011.37-1.48c19.68-.95 22.63-12.6 22.64-19.47 0-5.61-2.37-18.69-24.52-19zM238 147.53z" fill="#8acef8"/><path fill="#fff" d="M238.39 123.15l4.36 4.36 9.85-7.98"/><path d="M242.75 128.51a1 1 0 01-.71-.29l-4.36-4.36a1 1 0 111.41-1.41l3.73 3.72 9.15-7.41a1 1 0 111.26 1.55l-9.85 8a1 1 0 01-.63.2zm127.37-29.08a1.27 1.27 0 001.46-.45l7.58-10.58a1.24 1.24 0 00-.29-1.75 1.26 1.26 0 00-1.75.29l-7.58 10.58a1.24 1.24 0 00.29 1.75 1.18 1.18 0 00.29.16zm8.96 13.93a1.26 1.26 0 00.64.06l12.57-2.08a1.26 1.26 0 00-.41-2.48l-12.57 2.08a1.26 1.26 0 00-.23 2.42zm-38.62-8.75a1.26 1.26 0 001.17-2.2l-10.9-7.81a1.25 1.25 0 00-1.46 2l10.9 7.81a1.18 1.18 0 00.29.2zM385.64 137a1.26 1.26 0 001.18-2.2l-10.25-7.35a1.26 1.26 0 10-1.47 2.05l10.25 7.34a1.4 1.4 0 00.29.16zm-31.49-41a1.26 1.26 0 001.68-1.38l-2.17-13.11a1.26 1.26 0 10-2.48.41L353.35 95a1.25 1.25 0 00.8 1z" fill="#8acef8"/><path d="M370.12 99.43a1.27 1.27 0 001.46-.45l7.58-10.58a1.24 1.24 0 00-.29-1.75 1.26 1.26 0 00-1.75.29l-7.58 10.58a1.24 1.24 0 00.29 1.75 1.18 1.18 0 00.29.16zm8.96 13.93a1.26 1.26 0 00.64.06l12.57-2.08a1.26 1.26 0 00-.41-2.48l-12.57 2.08a1.26 1.26 0 00-.23 2.42zm-38.62-8.75a1.26 1.26 0 001.17-2.2l-10.9-7.81a1.25 1.25 0 00-1.46 2l10.9 7.81a1.18 1.18 0 00.29.2zM385.64 137a1.26 1.26 0 001.18-2.2l-10.25-7.35a1.26 1.26 0 10-1.47 2.05l10.25 7.34a1.4 1.4 0 00.29.16zm-31.49-41a1.26 1.26 0 001.68-1.38l-2.17-13.11a1.26 1.26 0 10-2.48.41L353.35 95a1.25 1.25 0 00.8 1z" opacity=".5" fill="#fff"/><path d="M343.23 108.19a17 17 0 0127.5 19.91c-4 5.51-11.07 6.06-17 8.42-1.84.73-5.4 5.85-5.4 5.85l-11.66-8.45s3.75-5 3.87-6.95c.39-6.37-1.3-13.27 2.69-18.78z" fill="#8acef8"/><path d="M343.23 108.19a17 17 0 0127.5 19.91c-4 5.51-11.07 6.06-17 8.42-1.84.73-5.4 5.85-5.4 5.85l-11.66-8.45s3.75-5 3.87-6.95c.39-6.37-1.3-13.27 2.69-18.78z" fill="#fff" opacity=".4"/><path d="M337 140.47l5 3.6a4.13 4.13 0 005.77-.92l-11.67-8.44a4.14 4.14 0 00.9 5.76zm0 5.31a3.37 3.37 0 004.7-.75l-5.45-3.95a3.37 3.37 0 00.75 4.7z" fill="#263238"/><path d="M337 145.78a3.37 3.37 0 004.7-.75l-5.45-3.95a3.37 3.37 0 00.75 4.7z" fill="#fff" opacity=".5"/><path d="M337 140.47l5 3.6a4.13 4.13 0 005.77-.92l-11.67-8.44a4.14 4.14 0 00.9 5.76z" fill="#fff" opacity=".7"/><path d="M346.7 106.81c-6.23 8.69-7.84 22.43-1.13 27.23s20-2.3 25.42-9.82c3.32-4.63.58-12.29-6.13-17.09s-14.86-4.95-18.16-.32z" fill="#fff" opacity=".3"/><path d="M344.91 118.33a9.63 9.63 0 1013.43-2.21 9.63 9.63 0 00-13.43 2.21z" fill="#fff" opacity=".4"/><path d="M345.89 122c-2.18 3-.38 5.72 2.66 7.9s6.15 3 8.33 0 .34-5.68-2.69-7.86-6.13-3.04-8.3-.04z" fill="#fff" opacity=".4"/><path fill="#8acef8" d="M106.66 143.25l3.41 2.84 19.72-16.85 25.18 5.09 19.19-18.1 1.72 2.36 4.55-10.26-11.16 1.19 1.72 2.36-16.84 18.65-25.21-4.9-22.28 17.62z"/><path fill="#fff" d="M106.66 143.25l3.41 2.84 19.72-16.85 25.18 5.09 19.19-18.1 1.72 2.36 4.55-10.26-11.16 1.19 1.72 2.36-16.84 18.65-25.21-4.9-22.28 17.62z" opacity=".3"/><path d="M293.1 290.72c.58 9.06-1.66 20.72-3.8 29.41-1.77 7.18-3 9.16-3.47 12.34-.51 3.62.59 9 .31 13.55-1.07 18-8.39 54.4-8.39 54.4l-6.14-.39.16-70.47 4-68.28 24.23 6.46c2.42 13.26-6.9 22.98-6.9 22.98z" fill="#dd8c6a"/><path d="M324.28 401.67l-5.58-.16-15.49-68.8-15.66-66.57 25.11-.75c6 12-.09 24-.09 24 3.13 8.53 4.32 20.34 4.75 29.29.36 7.38-.29 9.64.19 12.81.56 3.62 2.32 8.43 3.37 12.9 4.12 17.74 3.4 57.28 3.4 57.28zM242.5 204.59l2.92 3.84c2.91.9 2.85 5.23 2.85 5.23.63.49 6.55 4.23 7.93 5.44l-3.49 3.76c-1.51-2.31-6.76-6.22-6.76-6.22s-7.14-4.37-8.31-5.93.78-6.2.78-6.2z" fill="#dd8c6a"/><path d="M250.58 214.05c4.79 3.49 11.86 8.84 11.86 8.84a167.47 167.47 0 0111.9-11.89 33.68 33.68 0 018.75-6l-1.23 14.39c-3.79 3.26-15.67 13.12-20.31 12.72-3.83-.33-10.94-8.54-15-13.62z" fill="#263238"/><path d="M270.15 228.31c2.53-4.27 9.47-15.48 9.47-15.48l1.66 3.77-1.12 4.14c-1.76 1.48-7.47 5.72-10.01 7.57z" opacity=".2"/><path d="M315.71 212.28a298.58 298.58 0 01-5.66 39.2s14.65 12 9.9 61.29c0 0-14.82 6.56-49.8-1.24l6.65-60.27s-1.54-39.17 2.62-43.54c3.68-3.88 19.73-9 32-2.92a7.73 7.73 0 014.29 7.48z" fill="#8acef8"/><path d="M315.71 212.28a298.58 298.58 0 01-5.66 39.2s14.65 12 9.9 61.29c0 0-14.82 6.56-49.8-1.24l6.65-60.27s-1.54-39.17 2.62-43.54c3.68-3.88 19.73-9 32-2.92a7.73 7.73 0 014.29 7.48z" opacity=".4"/><path d="M298.68 250.16s-10.73 1.86-18.27 0v4.6s5.61.81 18.27 0z" opacity=".3"/><path d="M304.92 188c-1.42 4-3.27 11.15-1.75 15.26a2.24 2.24 0 01-.87 2.67c-3.09 2.23-8.12 4-11.9 3.63-4.85-.53-3.59-4-2.35-5.85.33-.5.85-1.21 1.44-1.32 4.77-.81 5.68-4.39 5.31-8z" fill="#dd8c6a"/><path d="M300.8 190.61l-6 3.75a14.77 14.77 0 010 2.66 7.38 7.38 0 006-3.41c.7-1.27.49-2.77 0-3z" style="isolation:isolate" opacity=".3"/><path d="M289.17 190.05l-2.71 4.87c.84.07 1.6.35 2.44.42.42-.66.92-1.31 1.34-2-.16.68-.71 1.41-.88 2.08a26.13 26.13 0 004.52.43 1.73 1.73 0 00-.11-1.37 8.39 8.39 0 00-4-4.14z" fill="#263238"/><path d="M306.81 181.43c-1.75 6.23-2.46 10-6.35 12.52-5.85 3.84-13-.75-13.17-7.37-.13-6 2.76-15.16 9.48-16.33a8.83 8.83 0 0110.23 7.11 9 9 0 01-.19 4.07z" fill="#dd8c6a"/><path d="M292.2 181.43a15.43 15.43 0 01-2.7 3.17 2.5 2.5 0 001.92.77z" fill="#ff5652"/><path d="M299.05 179.14a.38.38 0 00.15 0 .32.32 0 00.15-.41 3.09 3.09 0 00-2.19-1.78.31.31 0 00-.35.26.31.31 0 00.26.35 2.48 2.48 0 011.72 1.43.3.3 0 00.26.15zm-9.83-2.94a.29.29 0 00.3 0 2.43 2.43 0 012.21-.17.31.31 0 00.41-.14.3.3 0 00-.13-.41 3.09 3.09 0 00-2.82.18.3.3 0 00-.12.41.37.37 0 00.15.13z" fill="#263238"/><path d="M302.94 201.22l-7 5.42a2.45 2.45 0 01-3.77-1l-1.59-3.64-1.86.48a1.17 1.17 0 00-.87.88c-.37 1.71-1.73 5.89-1.65 9.64 0 0 4.29-5.74 6.71-1.61 0 0 3.16-3.73 5.71 2.72a54.23 54.23 0 004.32-7.39c1.31-3.06 2.19-4.72 2.19-4.72z" fill="#fff"/><path d="M303.78 201.53a277.49 277.49 0 00-6.25 40.24c-1.41 20.28-1.7 26.41 6.32 25.53s14.59-1.89 13.42-4.81-5.54-9.49-5.27-12.84 3.06-29.46 3.38-33.41 2.7-12.24-11.6-14.71z" fill="#263238"/><path d="M305.15 256.76c-.1-.54 1.82-2.49 4-3.85a23.5 23.5 0 014.6-2.11s4.48-5.27 5.72-6.7l3.46 3a89.71 89.71 0 00-6.43 6.56l-1.86 3.93a6.88 6.88 0 01-2.61 2.22 20.44 20.44 0 01-3.65 1.29 1.17 1.17 0 01-1.29-.51 14.35 14.35 0 01-1.94-3.83z" fill="#dd8c6a"/><path d="M289.71 202.21s-6.57 12.36-7 33 .47 31.58-3.35 32.21-4.67-2-4.67-2 1.13-11.2 1.13-13.93-1.2-19.26 0-31.07 0-11.09 2-12.41 6.53-4.71 11.89-5.8z" fill="#263238"/><path d="M313.15 238.49l-3.94-22.61s3.25 3.31 5.66 5.85c-.46 4.62-1.14 11.14-1.72 16.76z" opacity=".2"/><path d="M311.36 204.12s-2.67 6.81-2.15 11.76c.22 2.1 15.14 18.1 15.14 18.1L313.1 248.9l5.8 5s16-15.84 16.13-20.13-17.66-27.84-23.67-29.65zm-14.58-23.43c-.1.52-.46.88-.8.82s-.54-.54-.43-1.07.46-.88.8-.82.53.54.43 1.07zm-5.89-1.16c-.1.52-.46.89-.8.82s-.53-.54-.43-1.06.46-.89.8-.82.54.53.43 1.06z" fill="#263238"/><path d="M290.6 178.52l-1.18-.6s.46 1.08 1.18.6zm5.89 1.16l-1.18-.6s.46 1.1 1.18.6zm-3.36 8.59a6.29 6.29 0 01-1 0 .16.16 0 01-.16-.18.17.17 0 01.17-.16 4.64 4.64 0 003.86-1.53.16.16 0 01.24 0 .17.17 0 010 .24 4.79 4.79 0 01-3.11 1.63zm9.96-19.02a36.11 36.11 0 01-1.22 26.87c.87-.26 1.8-.46 2.66-.71.42-1.11.75-2.25 1.17-3.35-.14 1-.41 2.24-.55 3.29l2.35-.43c.41-1.07.75-2.27 1.16-3.34-.18.95-.38 2.28-.57 3.23a13.11 13.11 0 005.39-7.89 16.18 16.18 0 00-1.32-10.53c-1.94-3.39-5.33-4.78-9.07-7.14z" fill="#263238"/><path d="M309 186.53a6.21 6.21 0 01-3 3.64c-1.91 1-3.32-.58-3.17-2.62.12-1.83 1.27-4.57 3.37-4.75a2.76 2.76 0 012.8 3.73z" fill="#dd8c6a"/><path d="M289.75 217.84a2 2 0 01-.88-.21 2.23 2.23 0 01-1.2-1.61 3 3 0 011.52-2.92 8 8 0 012.92-1h.93a.51.51 0 01.48.51.5.5 0 01-.49.49c-.49 0-1.08 1-1.2 1.81v.12a3.19 3.19 0 01-1.27 2.55 1.7 1.7 0 01-.81.26zm1.67-4.54a5.06 5.06 0 00-1.69.64 2.14 2.14 0 00-1.08 1.93 1.23 1.23 0 00.67.86.78.78 0 00.74 0c.52-.27.64-1.06.76-1.82v-.12a4.16 4.16 0 01.6-1.49z" fill="#fff"/><path d="M295.86 218.17a1.69 1.69 0 01-.95-.29 3.13 3.13 0 01-1-2.67v-.12c0-.79-.52-1.86-1-1.93a.49.49 0 01-.43-.54.49.49 0 01.52-.45h.93a8.16 8.16 0 012.81 1.28 3 3 0 011.19 3.06 2.18 2.18 0 01-1.37 1.47 1.93 1.93 0 01-.7.19zm-1.36-4.71a4.26 4.26 0 01.41 1.58v.13c0 .76.08 1.55.56 1.89a.82.82 0 00.74.05 1.24 1.24 0 00.76-.79 2.11 2.11 0 00-.86-2 5.46 5.46 0 00-1.61-.86zm-4.5 9.78a.41.41 0 01-.16 0 .5.5 0 01-.32-.63 46.73 46.73 0 002-9.51.5.5 0 011 .1 48.27 48.27 0 01-2 9.72.5.5 0 01-.52.32z" fill="#fff"/><path d="M294 225.73a.5.5 0 01-.46-.31 9.72 9.72 0 01-.65-3.14 19.47 19.47 0 01.27-3.26c.08-.54.16-1.08.21-1.62a6.57 6.57 0 00-.77-4.35.5.5 0 01.83-.56 7.48 7.48 0 01.93 5c-.05.56-.13 1.12-.21 1.67a18.21 18.21 0 00-.26 3.08 8.7 8.7 0 00.58 2.81.51.51 0 01-.28.65.58.58 0 01-.19.03z" fill="#fff"/><path d="M302.61 180.72c-.54-.49-1.3-1.1-1.84-1.6a10.94 10.94 0 00.26-3.32c-.25.88-.33 1.78-.58 2.66l-1.84-1.22a2.77 2.77 0 00-1.54-.62c.1-.91.14-1.84.25-2.75-.21.81-.45 1.71-.65 2.52-.72-.1-1.55-.27-2.26-.37.08-1 .2-1.92.29-2.89-.31.76-.53 2.06-.84 2.82l-.21-.29a17.11 17.11 0 00-6.26-.35c-.7-2.75.14-6.64 2.84-7.53 9.15-3.05 16.64 4.09 16.85 4.68 1.37 3.77-1.16 6.27-4.47 8.26z" fill="#263238"/><path d="M306 188.4a.87.87 0 11-.87-.87.87.87 0 01.87.87z" fill="#8acef8"/><path d="M269.52 398.78c-4.83 2.65-5.37 2.7-10.7 3.71-1.17.22-.76 3 2 3.06 4.51.14 4.13 0 8 .08 3.28.08 7.23.36 9.84.47h.09a1.08 1.08 0 001-1.15l-.57-5.94a.54.54 0 00-.51-.47l-7.44-.21a3.31 3.31 0 00-1.71.45z" fill="#263238"/><path d="M269.55 399.23a.16.16 0 000-.16.15.15 0 00-.17 0c-.32.11-3.1 1.21-3.31 2.1a.53.53 0 00.13.48.92.92 0 00.77.29c1-.11 2.05-1.7 2.6-2.64zm-3.19 1.91c.2-.49 1.59-1.19 2.66-1.65-.79 1.26-1.58 2-2.12 2.09a.54.54 0 01-.5-.2.17.17 0 01-.06-.18z" fill="#8acef8"/><path d="M269.55 399.23a.14.14 0 00-.06-.15 4.47 4.47 0 00-2.59-.95 1.15 1.15 0 00-.79.47c-.25.35-.18.59-.06.73.49.61 2.61.37 3.41 0a.14.14 0 00.09-.1zm-3.26-.33l.11-.12a.83.83 0 01.57-.35 3.75 3.75 0 012.12.72c-.92.28-2.48.33-2.77 0 0 0-.07-.08 0-.2zm0-.24" fill="#8acef8"/><path d="M316.11 399.25a23.23 23.23 0 01-9.36 4.63c-1.42.4-.53 3 2.87 3 5.63-.09 3.39-.18 8.2-.29 4.11-.08 5.2-.11 8.46-.13h.11a1.23 1.23 0 001.2-1.3l-1.09-6.38a.63.63 0 00-.66-.48l-8.59.23c-.75-.09-.56.31-1.14.72z" fill="#263238"/><path d="M316.07 399.75a.15.15 0 000-.18.19.19 0 00-.16-.12c-.43 0-4.16.12-4.75 1a.49.49 0 000 .53 1.13 1.13 0 00.79.57c1.18.24 3.1-1 4.16-1.77zm-4.56.8c.43-.44 2.36-.66 3.81-.73-1.46 1-2.71 1.49-3.36 1.38a.7.7 0 01-.51-.38.18.18 0 010-.21z" fill="#8acef8"/><path d="M316.07 399.75a.15.15 0 000-.17c-.07-.05-1.32-1.68-2.66-1.89a1.6 1.6 0 00-1.12.2c-.45.27-.46.54-.38.72.32.78 2.92 1.31 4 1.24a.21.21 0 00.16-.1zm-3.71-1.51l.13-.13a1.17 1.17 0 01.82-.14 4.54 4.54 0 012.2 1.48c-1.21-.05-3.06-.54-3.25-1 0 0 0-.11.13-.22zm.05-.25" fill="#8acef8"/><path d="M228.08 241.29c-1.41 2.78 3.28 6.19 3.28 6.19l2.22 2.27a2.18 2.18 0 002.9.28l2.19-1.56.07-.05a2.18 2.18 0 00.45-3l-1.47-2a7.09 7.09 0 00-2.24-2l-4.21-2.42z" fill="#ffc3bd"/><path d="M209.79 180.38a6.56 6.56 0 0112.07.28l.14.35a18.49 18.49 0 011 7.63c-.06 2.55-.14 5.14-.1 7.61s0 11.39.08 13.81c.08 2.24 4.61 12.37 9 27a5.85 5.85 0 00.33.82l.81 1.61s-1.21.77-2.45 1.51a14.22 14.22 0 01-3.27 1.84 7.24 7.24 0 01-1.59-2.08c-3.5-5.52-14.93-26-15.53-29-.59-2.78-1-12-1.26-14.8s-.46-5.53-.54-8.29a25.06 25.06 0 01.16-4.15 14.64 14.64 0 011.15-4.15z" fill="#263238"/><path d="M209.79 180.38a6.56 6.56 0 0112.07.28l.14.35a18.49 18.49 0 011 7.63c-.06 2.55-.14 5.14-.1 7.61s0 11.39.08 13.81c.08 2.24 4.61 12.37 9 27a5.85 5.85 0 00.33.82l.81 1.61s-1.21.77-2.45 1.51a14.22 14.22 0 01-3.27 1.84 7.24 7.24 0 01-1.59-2.08c-3.5-5.52-14.93-26-15.53-29-.59-2.78-1-12-1.26-14.8s-.46-5.53-.54-8.29a25.06 25.06 0 01.16-4.15 14.64 14.64 0 011.15-4.15z" opacity=".3"/><path d="M173.88 183.83c1.71 19.7 8.25 30.8 7.37 46.54 0 0 35.5.7 36.72.7.52-29 4.66-26.79 3.39-45.15.22-6-3.21-9.75-6.68-10.35l-15.12-3.13-19.49 3.35a7.48 7.48 0 00-6.19 8.04z" fill="#8acef8"/><path fill="#ffc3bd" d="M201.76 364.2l4.6 36.35 8.96-.64-2.42-35.71h-11.14z"/><path d="M217.5 325.71c.81 34.28-1.17 63.66-1.17 63.66l-12.09.82s-6.81-44.48-4.06-62.65c-.13-3.82-4.55-51.59-6.07-60.62-2.75-16.21-5.69-27.33-5.69-27.33l28.45-1.59s.13 66.13.63 87.71z" fill="#8acef8"/><path d="M201.27 252.05s-.92 37.55-2.56 58.14c-.85-11.13-3.08-34.24-4.6-43.27z" opacity=".2"/><path fill="#ffc3bd" d="M163.91 364.87l-3.69 34.45 8.93-.97 6.48-33.91-11.72.43z"/><path d="M159.1 389.25l13.71-.5s11.68-42.09 16.61-64.33c4.78-24.79 13.7-86.66 13.7-86.66L180.33 236c-12.14 21.93-7.77 74.43-9.92 89.13-10.3 18.37-11.31 64.12-11.31 64.12z" fill="#8acef8"/><path d="M216.64 227h-33.37s-5.48 19.31-5.43 19.12S217 248 217 248z" fill="#8acef8"/><path d="M217 397c5.92 3 6.57 3.06 13 4.08 1.42.23 1 3.59-2.27 3.77-5.43.33-5 .11-9.61.37-3.95.22-9.67.69-12.82.92h-.1a1.31 1.31 0 01-1.27-1.35l.48-7.19a.64.64 0 01.6-.58l9.93-.51a3.74 3.74 0 012.06.49z" fill="#263238"/><path d="M217 397.52c.7 1.12 2.06 3 3.23 3.09a1.08 1.08 0 00.92-.38.61.61 0 00.14-.58c-.29-1.07-3.68-2.29-4.06-2.41a.2.2 0 00-.22.05.21.21 0 000 .2zm3.93 2.23a.23.23 0 01-.06.22.64.64 0 01-.6.25c-.66-.05-1.63-1-2.64-2.44 1.32.51 3 1.31 3.28 1.89z" fill="#8acef8"/><path d="M217 397.6c1 .4 3.55.61 4.12-.14.13-.17.22-.47-.1-.88a1.45 1.45 0 00-1-.54c-1.31-.16-3 1.18-3.09 1.23a.22.22 0 00-.07.18.15.15 0 00.14.15zm3.82-.61a.22.22 0 010 .25c-.34.44-2.22.44-3.34.13a4.56 4.56 0 012.53-.94 1 1 0 01.7.4l.14.14zm.06-.3" fill="#8acef8"/><path d="M171.35 396.63c2.42 2.12 5.89 4.06 11.31 5.58 1.71.48.63 3.66-3.47 3.57-6.79-.1-4.09-.22-9.89-.34-5-.1-6.27-.14-10.21-.17H159a1.47 1.47 0 01-1.45-1.56l1.31-7.7a.77.77 0 01.81-.58l10.36.28c.86-.06.64.42 1.32.92z" fill="#263238"/><path d="M171.38 397.26c1.27.93 3.58 2.41 5 2.13a1.33 1.33 0 001-.69.57.57 0 000-.64c-.71-1.05-5.22-1.19-5.73-1.19a.2.2 0 00-.2.15.17.17 0 000 .21zm5.6 1a.21.21 0 010 .25.88.88 0 01-.62.46c-.78.13-2.3-.47-4.06-1.67 1.75.09 4.08.36 4.6.89z" fill="#8acef8"/><path d="M171.56 397.31c1.32.09 4.46-.55 4.84-1.49.11-.22.09-.55-.45-.87a2 2 0 00-1.35-.25c-1.62.26-3.13 2.22-3.21 2.29a.17.17 0 000 .2.28.28 0 00.17.12zm4.29-1.93c.14.14.1.23.16.27-.23.56-2.46 1.15-3.92 1.22a5.46 5.46 0 012.65-1.79 1.38 1.38 0 011 .17l.16.16zm0-.27" fill="#8acef8"/><path d="M173.88 183.83c1.71 19.7 8.25 30.8 7.37 46.54 0 0 35.5.7 36.72.7.52-29 4.66-26.79 3.39-45.15.22-6-3.37-9.79-6.84-10.39l-15-3.09-19.49 3.35a7.48 7.48 0 00-6.15 8.04z" fill="#fff" opacity=".8"/><path d="M210.75 213.14l-4 7.12-7.24-7.71c0-.19 3.1-32.55 3.1-32.55l1.87-.14c-.18 3.93 6.27 33.28 6.27 33.28z" fill="#8acef8"/><path d="M209.55 178.63a93.06 93.06 0 01-4.14 41.08l3 32.34c.59 4.69 3.6 5.61 6.29 5.86l5.52-.44-2-30.86s4.51-34 3.47-41.7c-.69-5.08-2.37-7.06-3.57-8.09a4 4 0 00-1.79-.86c-2.1-.44-8.28-2.11-8-2s1.22 4.67 1.22 4.67z" fill="#263238"/><path d="M206.62 164.46c-.76 3.61-1.93 8.53 2 10.21 1.71.74 2.52 3.14.88 3.91s-12.26 0-13.19-.44c-2.3-1.18-3.92-2-2.68-4.3 2.16-3.93.79-12.15.5-16.1z" fill="#ffc3bd"/><path d="M205.54 178.2l-.49 1.55a.91.91 0 01-.72.72l-1.87.14a.71.71 0 01-.68-.49l-.91-1.38 2.33-1.37z" fill="#8acef8"/><path d="M196.61 163.45a12.49 12.49 0 002.4 3.76c1.45 1.66 4.18 2.39 6.82 2.39a26.68 26.68 0 01.78-5.18l-.55-.29z" style="isolation:isolate" opacity=".2"/><path d="M192 257.79c9 .61 11.5-.32 12.75-7.34 0 0 2.38-25.17 1.91-30.74 0 0-6-11.7-7.18-19.83-1.28-9.09-6.86-27.29-8.47-27.17-3.09.21-14.62 4.25-16.49 6.72-2.48 3.29-.87 7.09-.28 11.17 1.88 13.07 3.29 17.57 4 30.75 0 0-6 34-5.08 34.12.7.07 11.66 1.83 18.84 2.32z" fill="#263238"/><path d="M181.25 230.37h15.36v.69a3.68 3.68 0 01-3.68 3.68h-8a3.68 3.68 0 01-3.68-3.68zm37.32 4.54h-2.16a3.7 3.7 0 01-3.84-3.53v-.68l5.94-.25z" fill="#fff" opacity=".2"/><path d="M212.67 159.4c-1 7.15-9.29 11.27-15.11 6.45-3.37-2.78-4-6.24-4.88-11.65-.13-.82-.26-1.68-.41-2.6a9.67 9.67 0 01.24-4.28 8.73 8.73 0 01.65-1.68 9.65 9.65 0 0111.3-5c7.13 2.08 9.1 12.36 8.21 18.76z" fill="#ffc3bd"/><path d="M195.55 146.22a29.88 29.88 0 012.45 5 6.62 6.62 0 00-1.82.71c-.52.33 0 1.89.27 2.47a28.31 28.31 0 001.69 3.4 12.69 12.69 0 01-2.89.84 5.18 5.18 0 00-1.3-2 2.66 2.66 0 00-2.87-.85c-.18-.89-5.41-4.91-1.05-7.6a9.26 9.26 0 012.09-1.25l1-.37a7.3 7.3 0 012.43-.35z" fill="#263238"/><path d="M191.32 154c2.23-.51 4.3 1.94 5 3.8.82 2.06-.16 4.17-2.46 3.76a6.6 6.6 0 01-4.24-2.8 3 3 0 011.7-4.76z" fill="#ffc3bd"/><path d="M204.7 151c.37 0 .72.39.78 1s-.15 1.06-.57 1.1-.76-.39-.82-1 .24-1.02.61-1.1zm6.41-.42c.37 0 .72.39.78 1s-.19 1.06-.57 1.1-.72-.39-.78-.95.2-1.1.57-1.15z" fill="#263238"/><path d="M209.49 157.71a3.27 3.27 0 002.57-1.09 20.06 20.06 0 01-3.65-4.21z" fill="#f98c8c"/><path d="M203.17 150.06a2.69 2.69 0 012-1.35h.11a.34.34 0 00.28-.39.35.35 0 00-.39-.28 3.35 3.35 0 00-2.58 1.65.35.35 0 00.11.46.34.34 0 00.17 0 .42.42 0 00.3-.09zm9.21-.58a.34.34 0 00.06-.47 3.34 3.34 0 00-2.76-1.32.32.32 0 00-.29.36.33.33 0 00.36.28 2.65 2.65 0 012.17 1.07.33.33 0 00.29.13.48.48 0 00.17-.05zm-11.16 64.68c-1.25-4.4-2.69-8.84-5.3-12.59-.94-1.36-2-2.61-3-4a55 55 0 01-3.69-5.54c1.1-1 2.55-2 3.73-2.92l-4.46-3.69a46.44 46.44 0 001.53-13 2.3 2.3 0 011.69-.4 34.64 34.64 0 014.59 10.79 179.09 179.09 0 014.91 31.35z" fill="#263238"/><path d="M206.13 218.61c-.07-.09-.13-.2-.2-.31-2.84-4.42-15.76-24.6-16.66-26.28 1.11-1 2.56-2 3.74-2.92l-4.46-3.69a46.81 46.81 0 001.53-13 2.29 2.29 0 011.68-.4 35 35 0 013.34 6.64 33.56 33.56 0 011.25 4.15c2.53 9.94 5.17 26.14 9.62 35.37z" fill="#fff" opacity=".2"/><path d="M212.57 216.29c-.07-4.58 0-9.24 1.43-13.59.51-1.57 1.19-3.08 1.72-4.65.68-2 2.75-4.48 3.17-6.58-1.34-.61-3-1.23-4.42-1.72l3.21-4.82c-2.3-3.73-5.81-6.77-7-11a2.31 2.31 0 00-1.73.1c-.71 2.35.41 9.19.47 10.63.5 10.63.81 21.26 3.15 31.63z" fill="#263238"/><path d="M218.89 191.47c-2.49 6.82-7.68 21-12.76 27.14-.16.19-.31.37-.47.54l.27-.85a1 1 0 010-.14c4.63-15 4-23.15 3.51-33.54-.06-1.44-1.18-8.47-.47-10.81a2.26 2.26 0 011.73-.1c1.17 4.22 4.68 7.44 7 11.17-1.06 1.61-2.13 3.21-3.2 4.82 1.35.54 3.05 1.16 4.39 1.77z" fill="#fff" opacity=".2"/><path d="M173.46 186.72s3.07 6.9 10.48 17.09c7.53 10.35 11.76 10.35 11.76 10.35l5.52 1.66s-1.42-26.1-17.46-30c-4.76-1.19-11.32.93-10.3.9z" opacity=".3"/><path fill="#ffc3bd" d="M236.2 203.71l-8.25.38v4.54l8.25-1.16v-3.76z"/><path d="M233.83 206.7c-.17 4 4.71 4.91 4.71 4.91l2.54 2.08a2.24 2.24 0 002.92 0l2.1-1.79.06-.05a2.24 2.24 0 00.14-3.16l-1.71-1.89a7.22 7.22 0 00-2.49-1.8l-5.9-1.29z" fill="#ffc3bd"/><path d="M174.27 181.22c-1.7 3.32-.94 7.16 1.1 10.28 4.64 7.06 19.94 16.44 23 18.51 6.92 4.72 35-.78 35-.78l.41-6.93-30-1.5s-10.07-16.77-17-21.89c-3.49-2.56-10.13-2.34-12.51 2.31zm22.21-41.49a3.3 3.3 0 00-2.59.83 10.47 10.47 0 00-3.92 6.08 3 3 0 000 1.51 1.29 1.29 0 001.05 1 6 6 0 012.55-1.58 34.46 34.46 0 016-1.39 75.86 75.86 0 0010.93-2.5c.71-.21 1.52-.53 1.71-1.24s-1.34-1.87-1.09-2.1c.39-.38.93-.72.93-1.26a1.3 1.3 0 00-.17-.61 2.89 2.89 0 00-1.58-1.55 1.45 1.45 0 00-1.83.87 17.27 17.27 0 00-.44-1.92 1.36 1.36 0 00-.78-.6 3.17 3.17 0 00-2.91.62 9.43 9.43 0 00-2 2.37c-1.04 1.52-4.04 1.89-5.86 1.47zm9.34 19.07a.16.16 0 010-.23.15.15 0 01.21 0 4.22 4.22 0 003.6 1.28.17.17 0 01.18.15.16.16 0 01-.14.17 4.48 4.48 0 01-3.85-1.37z" fill="#263238"/><path d="M191.71 172.34l2.54-.8a24.65 24.65 0 009.4 6.43 9.56 9.56 0 00-3.72 4.14c-8.5-3.36-8.22-9.77-8.22-9.77z" fill="#fff"/><path d="M208.64 172.78l-2.31-.61s-1.18 4.81-3.61 5.38c4.11 1.83 4.7 3.93 4.7 3.93 6.12-1.65 1.22-8.7 1.22-8.7z" fill="#fff"/><path d="M203.84 220.9a.93.93 0 11-.88-1 .94.94 0 01.88 1z" fill="#fff" opacity=".3"/></svg>