<svg xmlns="http://www.w3.org/2000/svg" viewBox="0 0 500 500"><path d="M443.92 330.198H263.174a5.869 5.869 0 01-5.862-5.862V61.062a5.869 5.869 0 015.862-5.862H443.92a5.868 5.868 0 015.862 5.862v263.273a5.868 5.868 0 01-5.862 5.862zM263.174 55.45a5.618 5.618 0 00-5.612 5.612v263.273a5.618 5.618 0 005.612 5.612H443.92a5.618 5.618 0 005.612-5.612V61.062a5.619 5.619 0 00-5.612-5.612H263.174zm-27.681 274.748H54.746a5.869 5.869 0 01-5.862-5.862V61.062a5.868 5.868 0 015.862-5.862h180.747a5.868 5.868 0 015.862 5.862v263.273a5.868 5.868 0 01-5.862 5.862zM54.746 55.45a5.619 5.619 0 00-5.612 5.612v263.273a5.618 5.618 0 005.612 5.612h180.747a5.618 5.618 0 005.612-5.612V61.062a5.619 5.619 0 00-5.612-5.612H54.746zM0 391.267h500v.25H0zm51.672 14.264h16.06v.25h-16.06zm118.68-2.71h53.53v.25h-53.53zm-101.62 12h36.25v.25h-36.25zm309.62-12.13h43.19v.25h-43.19zm52.1 0h6.33v.25h-6.33zm-114.24 6.23h53.89v.25h-53.89z" fill="#e0e0e0"/><path d="M138.785 223.293a42.352 42.352 0 00-6.09-14.648l5.245-6.335-11.213-11.214-6.336 5.244a42.365 42.365 0 00-14.647-6.089l-.769-8.166H89.117l-.769 8.166a42.365 42.365 0 00-14.647 6.089l-6.335-5.244-11.214 11.214 5.245 6.336a42.358 42.358 0 00-6.09 14.647l-8.166.77v15.857l8.166.77a42.375 42.375 0 006.09 14.647l-5.245 6.335 11.214 11.214 6.335-5.246a42.328 42.328 0 0014.647 6.09l.769 8.166h15.858l.769-8.165a42.33 42.33 0 0014.647-6.091l6.336 5.246 11.213-11.214-5.245-6.335a42.355 42.355 0 006.09-14.647l8.165-.77v-15.857l-8.165-.77zm-20.271 8.698c0 11.856-9.611 21.468-21.468 21.468s-21.468-9.612-21.468-21.468 9.611-21.468 21.468-21.468 21.468 9.611 21.468 21.468zm201.82 63.066a31.816 31.816 0 00-4.576-11.008l3.942-4.761-8.427-8.428-4.762 3.941a31.843 31.843 0 00-11.008-4.576l-.578-6.137h-11.918l-.578 6.137a31.843 31.843 0 00-11.008 4.576l-4.761-3.941-8.427 8.428 3.941 4.761a31.845 31.845 0 00-4.577 11.008l-6.137.579v11.917l6.137.579a31.845 31.845 0 004.577 11.008l-3.941 4.761 8.427 8.428 4.761-3.942a31.818 31.818 0 0011.008 4.577l.578 6.137h11.918l.578-6.136a31.826 31.826 0 0011.008-4.577l4.762 3.942 8.427-8.428-3.942-4.761a31.832 31.832 0 004.576-11.008l6.137-.579v-11.917l-6.137-.579zm-15.235 6.537c0 8.91-7.223 16.134-16.134 16.134s-16.134-7.224-16.134-16.134 7.223-16.134 16.134-16.134 16.134 7.224 16.134 16.134zm-96.053 48.173a22.858 22.858 0 00-3.287-7.907l2.831-3.42-6.053-6.053-3.42 2.831a22.874 22.874 0 00-7.907-3.287l-.415-4.408h-8.561l-.415 4.408a22.885 22.885 0 00-7.907 3.287l-3.42-2.831-6.053 6.053 2.831 3.42a22.858 22.858 0 00-3.287 7.907l-4.408.416v8.56l4.408.416a22.874 22.874 0 003.287 7.907l-2.831 3.42 6.053 6.053 3.42-2.832a22.86 22.86 0 007.907 3.288l.415 4.408h8.561l.415-4.408a22.856 22.856 0 007.907-3.288l3.42 2.832 6.053-6.053-2.831-3.42a22.874 22.874 0 003.287-7.907l4.408-.416v-8.56l-4.408-.416zm-10.943 4.695c0 6.4-5.189 11.589-11.589 11.589s-11.589-5.189-11.589-11.589 5.188-11.589 11.589-11.589 11.589 5.189 11.589 11.589zM429.77 101.654a25.365 25.365 0 00-3.65-8.78l3.144-3.797-6.721-6.722-3.798 3.144a25.411 25.411 0 00-8.78-3.65l-.461-4.895h-9.506l-.461 4.895a25.411 25.411 0 00-8.78 3.65l-3.798-3.144-6.722 6.722 3.144 3.798a25.384 25.384 0 00-3.65 8.78l-4.895.462v9.505l4.895.461a25.4 25.4 0 003.65 8.78l-3.144 3.798 6.722 6.722 3.798-3.144a25.373 25.373 0 008.78 3.65l.461 4.895h9.506l.461-4.894a25.355 25.355 0 008.78-3.651l3.798 3.144 6.721-6.722-3.144-3.797a25.38 25.38 0 003.65-8.78l4.894-.461v-9.505l-4.894-.462zm-12.151 5.214c0 7.107-5.761 12.868-12.868 12.868s-12.868-5.762-12.868-12.868S397.644 94 404.751 94s12.868 5.761 12.868 12.868zM74.359 309.477a15.33 15.33 0 00-2.204-5.302l1.898-2.293-4.058-4.059-2.293 1.898a15.344 15.344 0 00-5.301-2.204l-.278-2.956h-5.74l-.279 2.956a15.335 15.335 0 00-5.301 2.204l-2.293-1.898-4.059 4.059 1.898 2.293a15.316 15.316 0 00-2.204 5.301l-2.956.279v5.739l2.956.279a15.324 15.324 0 002.204 5.301l-1.898 2.293 4.059 4.059 2.293-1.899a15.316 15.316 0 005.301 2.204l.279 2.956h5.74l.278-2.955a15.316 15.316 0 005.301-2.204l2.293 1.899 4.058-4.059-1.898-2.293a15.332 15.332 0 002.204-5.301l2.955-.279v-5.739l-2.955-.279zm-7.337 3.148a7.77 7.77 0 11-15.54 0 7.77 7.77 0 0115.54 0zm125.436-154.241h43.091v30.276h-43.091z" fill="#f0f0f0"/><path d="M213.781 178.664l-21.09-19.544a.5.5 0 01.68-.734l20.419 18.923 20.703-18.67a.499.499 0 11.67.742l-21.381 19.283z" fill="#e6e6e6"/><path d="M193 188.618a.5.5 0 01-.374-.832l14.26-16.016a.5.5 0 11.747.665l-14.26 16.016a.499.499 0 01-.374.167zm42.113 0a.504.504 0 01-.374-.167l-14.26-16.016a.5.5 0 11.747-.665l14.26 16.016a.5.5 0 01-.374.832z" fill="#e6e6e6"/><path fill="#f0f0f0" d="M353.55 329.73l72.374-9.927 6.976 50.85-72.375 9.929z"/><path d="M393.973 358.416l-39.665-27.786a.499.499 0 11.574-.818l38.915 27.261 30.676-36.37a.5.5 0 11.764.644l-31.264 37.069z" fill="#e6e6e6"/><path d="M361.309 380.049a.5.5 0 01-.415-.778l20.261-30.186a.5.5 0 01.83.556l-20.261 30.186a.498.498 0 01-.415.222zm70.731-9.703a.498.498 0 01-.325-.12l-27.641-23.614a.5.5 0 01.65-.76l27.641 23.614a.5.5 0 01-.325.88z" fill="#e6e6e6"/><circle cx="211.844" cy="85.111" r="46.688" fill="#e0e0e0"/><circle cx="211.844" cy="85.111" r="37.637" fill="#fff"/><circle cx="211.844" cy="85.111" r="26.332" fill="#f0f0f0"/><circle cx="211.844" cy="85.111" r="16.666" transform="rotate(-45 211.844 85.111)" fill="#e0e0e0"/><circle cx="211.844" cy="84.973" r="6.573" fill="#f0f0f0"/><path d="M259.537 59.372l.359-1.836a4.686 4.686 0 012.321-3.196l6.307-3.507-1.981 4.835-7.006 3.703z" fill="#ebebeb"/><path d="M259.537 59.104l1.662.858a4.685 4.685 0 003.946.163l6.664-2.77-5.021-1.447-7.252 3.197z" fill="#ebebeb"/><path fill="#e0e0e0" d="M211.607 84.128l56.395-29.787.467.883-56.396 29.787z"/><path d="M458.875 448.394c0 3.387-93.517 6.132-208.875 6.132s-208.875-2.745-208.875-6.132 93.516-6.132 208.875-6.132 208.875 2.746 208.875 6.132z" fill="#f5f5f5"/><g fill="#263238"><path d="M344.124 427.857c-.014-.446-1.514-44.705-8.713-51.705-7.002-6.807-15.038-.253-15.376.029l-.722-.865c.091-.077 9.16-7.48 16.884.029 7.522 7.315 8.994 50.637 9.053 52.478l-1.126.035z"/><path d="M344.742 436.555c-.052-.529-4.92-53.133 14.291-75.181l.849.739c-18.893 21.682-14.069 73.808-14.019 74.331l-1.121.11z"/><path d="M344.031 430.991l-1.125-.075c.039-.596 3.76-59.804-10.332-72.764l.762-.83c14.487 13.325 10.855 71.211 10.694 73.669z"/><path d="M345.866 430.958l-1.127-.009c.014-1.631.465-39.992 11.362-46.236 2.422-1.39 4.794-1.621 7.051-.688 6.589 2.726 9.854 14.452 9.99 14.95l-1.087.297c-.032-.117-3.256-11.692-9.335-14.206-1.916-.791-3.954-.582-6.058.624-10.34 5.925-10.792 44.875-10.795 45.268zm-4.244.028l-1.124-.064c.017-.303 1.644-30.315-6.456-40.889-1.962-2.562-4.093-3.783-6.344-3.625-5.307.371-9.757 8.137-9.801 8.215l-.981-.555c.193-.341 4.791-8.37 10.703-8.784 2.645-.188 5.11 1.182 7.318 4.065 8.354 10.906 6.758 40.388 6.685 41.637z"/><path d="M343.398 435.068c-.221-2.912-5.295-71.439 3.633-83.514l.905.669c-8.681 11.742-3.469 82.05-3.415 82.759l-1.123.086z"/></g><path d="M367.195 387.809s-5.698 2.106-3.764 6.636c5.45 12.766 18.441 14.126 18.441 14.126s6.096-9.65 1.099-17.145c-6.889-10.333-15.632-6.953-15.777-3.617zm-24.9-5.713s5.703-.239 6.028 4.677c.324 4.915-12.356 18.514-12.356 18.514s-9.049-3.271-7.105-15.538c1.944-12.266 12.016-10.677 13.434-7.653zm2.765-28.645s-2.395-.295-3.296-2.45c-2.687-6.43 6.547-13.364 18.894-9.701 0 0 .327 10.865-6.317 15.15s-9.281-2.999-9.281-2.999zm-21.159 33.694s1.987-2.725-1.016-2.992c-3.003-.267-16.004 5.559-12.585 18.894 0 0 16.722-5.454 17.302-11.038.58-5.583-3.7-4.864-3.7-4.864zm35.652-28.923s.751-2.475 3.583-3.509c2.832-1.034 13.353-.385 13.498 13.381 0 0-16.185 2.69-18.189-2.554-2.003-5.243 1.107-7.318 1.107-7.318zm-8.737 11.439s1.088-1.887 3.168-.877c2.079 1.009 8.21 7.318 2.364 14.933 0 0-10.863-6.532-9.975-11.116.818-4.225 4.444-2.94 4.444-2.94zm-26.614 3.32s1.569-2.056-.729-2.311c-2.298-.255-12.594 2.494-10.196 12.772 0 0 12.544-.943 13.081-5.213.538-4.27-2.157-5.249-2.157-5.249z" fill="#407bff"/><path d="M334.846 401.007a.25.25 0 01-.248-.215c-.898-6.401 2.127-13.989 7.529-18.881a.25.25 0 11.336.372c-5.285 4.785-8.247 12.195-7.369 18.439a.25.25 0 01-.213.283l-.035.002zm21.083-21.197a.25.25 0 01-.245-.201 18.479 18.479 0 00-5.043-9.394.25.25 0 11.352-.356 18.983 18.983 0 015.182 9.651.25.25 0 01-.245.299zm23.785 20.495a.25.25 0 01-.225-.141c-2.5-5.134-7.365-9.894-12.396-12.127a.25.25 0 01.203-.457c5.131 2.278 10.094 7.132 12.642 12.365a.25.25 0 01-.224.359zm-6.101-35.58a.251.251 0 01-.212-.116 12.822 12.822 0 00-6.235-5.107c-2.717-1.036-5-1.769-7.544-1.039a.248.248 0 01-.31-.171.252.252 0 01.171-.31c2.699-.774 5.057-.017 7.86 1.053a13.316 13.316 0 016.481 5.307.253.253 0 01-.078.346.262.262 0 01-.134.038z" opacity=".3"/><path d="M336.851 360.541s3.798.453 4.018-1.872c.22-2.326-12.554-11.377-23.036-3.894 0 0 3.227 10.38 10.904 12.269 7.677 1.89 8.114-6.503 8.114-6.503z" fill="#407bff"/><path d="M336.733 360.98a.249.249 0 01-.2-.101c-3.821-5.138-13.514-7.022-16.85-5.816a.253.253 0 01-.32-.15.25.25 0 01.15-.32c3.408-1.23 13.329.489 17.42 5.988a.25.25 0 01-.2.4zm-20.964 18.707a.251.251 0 01-.214-.38c2.159-3.544 6.361-5.515 8.675-6.374a.25.25 0 01.174.468c-2.252.837-6.341 2.751-8.421 6.165a.253.253 0 01-.214.12zm-3.682 18.548a.249.249 0 01-.221-.365 24.327 24.327 0 0112.024-11.114.254.254 0 01.328.133.25.25 0 01-.133.328c-4.98 2.117-9.273 6.084-11.776 10.884a.25.25 0 01-.222.135zm33.475-44.794a.25.25 0 01-.226-.356c2.056-4.388 6.04-7.882 10.659-9.347a.25.25 0 11.15.476c-4.487 1.424-8.359 4.818-10.356 9.083a.25.25 0 01-.227.144z" opacity=".3"/><path fill="#263238" d="M359.076 446.795h-30.66l-3.307-28.18h37.274l-3.307 28.18z"/><path fill="#263238" d="M319.953 414.269h47.586v8.693h-47.586z"/><path opacity=".3" d="M325.562 422.961l.594 5.696h35.18l.595-5.702-36.369.006z"/><path d="M192.521 99.618H78.034a2.057 2.057 0 00-2.057 2.057v44.751c0 1.136.921 2.057 2.057 2.057h34.916c2.762 2.937 12.254 12.474 12.254 12.474v-12.474h67.316a2.057 2.057 0 002.057-2.057v-44.751a2.057 2.057 0 00-2.057-2.057z" fill="#407bff"/><path d="M192.521 99.618H78.034a2.057 2.057 0 00-2.057 2.057v44.751c0 1.136.921 2.057 2.057 2.057h34.916c2.762 2.937 12.254 12.474 12.254 12.474v-12.474h67.316a2.057 2.057 0 002.057-2.057v-44.751a2.057 2.057 0 00-2.057-2.057z" fill="#fff" opacity=".6"/><g fill="#407bff"><path d="M103.129 128.339c0 3.118-2.633 4.933-7.565 4.933h-10.07v-17.891h9.559c4.933 0 7.233 1.968 7.233 4.677 0 1.662-.843 3.041-2.479 3.859 2.096.767 3.323 2.3 3.323 4.422zm-11.706-8.741v2.658h2.812c1.354 0 1.968-.46 1.968-1.329s-.614-1.329-1.968-1.329h-2.812zm5.623 8.051c0-.92-.665-1.406-1.994-1.406h-3.629v2.811h3.629c1.329 0 1.994-.485 1.994-1.406zm15.873 1.124h-1.636v4.498h-6.032V115.38h8.613c4.984 0 8.153 2.607 8.153 6.748 0 2.582-1.226 4.524-3.373 5.623l3.757 5.521h-6.44l-3.041-4.498zm.562-8.741h-2.198v4.191h2.198c1.662 0 2.454-.792 2.454-2.096s-.792-2.096-2.454-2.096z"/><path d="M136.484 130.153h-6.799l-1.201 3.118h-6.134l7.821-17.891h5.929l7.821 17.891h-6.236l-1.201-3.118zm-1.662-4.345l-1.738-4.498-1.738 4.498h3.476zm27.707-10.428v17.891h-4.958l-6.798-8.127v8.127h-5.878V115.38h4.958l6.799 8.128v-8.128h5.878zm2.915 0h8.817c5.981 0 10.096 3.399 10.096 8.946s-4.115 8.945-10.096 8.945h-8.817V115.38zm8.562 13.188c2.53 0 4.268-1.508 4.268-4.243s-1.738-4.243-4.268-4.243h-2.53v8.485h2.53z"/></g><path d="M171.388 96.605h-35.104a.375.375 0 010-.75h35.104a.375.375 0 010 .75zm8.622 0h-3.724a.375.375 0 010-.75h3.724a.375.375 0 010 .75zm10.837 147.471c-7.581 5.798-12.003 14.883-11.649 24.42.235 6.331 2.229 13.999 7.616 22.825 16.596 27.19 37.038 12.849 52.26 7.495 16.092-5.661 33.292-13.488 45.556-20.102 5.386-2.904 4.125-5.179 4.125-5.179s-36.692-65.25-41.618-67.311c-4.023-1.683-42.369 27.206-56.291 37.852z" fill="#407bff"/><path d="M216.967 299.963c-.078 1.079 21.851 72.82 29.197 76.244 7.346 3.425 29.733-4.719 30.613-10.079.88-5.361-17.911-80.49-17.911-80.49l-41.899 14.325zm67.475-22.61c22.809-8.85 46.421-1.057 46.421-1.057-14.544-11.907-23.725-29.58-36.062-50.407-17.439-29.44-21.09-63.523-21.537-63.511-.048 22.522-26.127 43.845-26.127 43.845s-18.174 17.353.888 48.194c19.062 30.84 36.417 22.935 36.417 22.935z" fill="#407bff"/><path d="M284.442 277.353c22.809-8.85 46.421-1.057 46.421-1.057-14.544-11.907-23.725-29.58-36.062-50.407-17.439-29.44-21.09-63.523-21.537-63.511-.048 22.522-26.127 43.845-26.127 43.845s-18.174 17.353.888 48.194c19.062 30.84 36.417 22.935 36.417 22.935z" fill="#fff" opacity=".8"/><path opacity=".3" d="M260.082 290.53l-28.323 11.191 29.976-4.451-1.653-6.74z"/><path d="M253.023 308.362l6.68 20.648s4.704-.3 10.848-2.384l4.708-2.339-1.458-4.338s-8.356-2.512-11.573-13.281l-9.206 1.695z" fill="#263238"/><path d="M270.552 326.625l-1.931-5.293s-8.609-1.047-11.712-13.686l-3.886.716 6.68 20.648s6.077-.662 10.848-2.384z" opacity=".3"/><ellipse cx="360.498" cy="190.962" rx="76.662" ry="120.093" transform="rotate(-27.46 360.497 190.962)" fill="#407bff"/><ellipse cx="360.498" cy="190.962" rx="76.662" ry="120.093" transform="rotate(-27.46 360.497 190.962)" fill="#fff" opacity=".5"/><path d="M436.679 173.537c3.887 10.626 16.949 56.155-34.397 79.059-58.37 26.036-128.216-104.766-128.216-104.766l-1.27 1.687c-.312 23.691 6.117 50.703 19.677 76.797 30.585 58.853 85.834 90.735 123.403 71.211 33.775-17.552 41.755-70.675 20.803-123.987z" opacity=".1"/><path d="M283.431 202.548l50.462-17.016 16.731 34.803-42.594 30.51s-15.21-15.22-24.599-48.296z" fill="#407bff"/><path d="M352.77 197.912c4.765 9.831 3.036 20.512-3.864 23.856-6.899 3.344-16.355-1.914-21.121-11.745-4.765-9.831-3.036-20.512 3.864-23.856 6.899-3.344 16.356 1.914 21.121 11.745z" fill="#407bff"/><path d="M352.77 197.912c4.765 9.831 3.036 20.512-3.864 23.856-6.899 3.344-16.355-1.914-21.121-11.745-4.765-9.831-3.036-20.512 3.864-23.856 6.899-3.344 16.356 1.914 21.121 11.745z" fill="#fff" opacity=".2"/><path d="M393.354 304.079c-34.665 0-75.512-30.323-100.318-78.058-14.921-28.711-21.908-59.387-19.676-86.376 2.254-27.243 13.624-47.51 32.016-57.068 37.723-19.602 93.562 12.85 124.479 72.342 30.917 59.493 25.381 123.842-12.34 143.444-7.455 3.874-15.623 5.716-24.161 5.716zM329.677 79.821c-8.109 0-15.852 1.745-22.919 5.418-17.443 9.065-28.243 28.474-30.408 54.653-2.188 26.433 4.684 56.529 19.348 84.745 30.153 58.024 84.179 89.905 120.435 71.064 36.25-18.839 41.208-81.377 11.061-139.398-24.276-46.713-64.025-76.482-97.516-76.482z" fill="#263238"/><path d="M396.752 98.585a139.133 139.133 0 0133.729 40.665 137.568 137.568 0 016.512 13.623c.363.88 1.815.495 1.446-.399-6.832-16.579-16.818-31.788-29.349-44.62a139.015 139.015 0 00-11.278-10.33c-.74-.608-1.808.448-1.061 1.061zm44.27 63.212l2.324 5.895c.148.377.502.639.923.524.359-.099.673-.544.524-.923l-2.324-5.895c-.148-.377-.502-.639-.923-.524-.359.099-.673.544-.524.923z" fill="#407bff"/><path fill="#b97964" d="M144.026 427.325l1.247 13.07 9.83 1.076.997-14.056-12.074-.09z"/><path d="M143.144 438.309c-.02-.516.429-.926.935-.906l2.988.115c.755.011 1.525 1.415 1.963 2.043 1.889 2.707 3.348 1.714 5.475-.777 1.333-.14 1.67 1.422 1.773 1.843l2.371 9.289c.206.776-.243 1.575-1.004 1.786a1.418 1.418 0 01-.415.05l-11.014-.153-15.426-.214c-4.205-.058-5.019-4.392-3.281-4.768 7.813-1.647 13.36-3.908 15.798-6.185.34-.3-.127-1.176-.164-2.122z" fill="#263238"/><path d="M144.511 443.328a.248.248 0 01-.214-.122 3.774 3.774 0 00-2.632-1.782.25.25 0 11.076-.494 4.276 4.276 0 012.985 2.021.25.25 0 01-.214.378zm-2.215 1.287a.248.248 0 01-.214-.122 3.772 3.772 0 00-2.633-1.781.25.25 0 11.076-.494 4.274 4.274 0 012.985 2.02.25.25 0 01-.214.378zm-2.726 1.298a.249.249 0 01-.214-.121 3.772 3.772 0 00-2.633-1.782.25.25 0 11.076-.494 4.28 4.28 0 012.985 2.019.25.25 0 01-.214.379z" fill="#fff"/><path fill="#b97964" d="M167.357 422.005l11.155 6.926 6.811-7.17-10.579-9.308-7.387 9.552z"/><path d="M175.562 429.361c-.423-.296-.477-.902-.155-1.293l1.902-2.308c.466-.595 2.05-.356 2.815-.324 3.298.137 3.392-1.626 2.699-4.827.696-1.145 2.144-.467 2.54-.295l8.827 3.741c.742.306 1.106 1.148.812 1.881-.052.13-.123.252-.212.361l-6.794 8.67-9.515 12.143c-2.594 3.31-6.535 1.332-5.781-.278 3.422-7.214 4.984-12.996 4.649-16.316-.032-.452-1.012-.612-1.787-1.155z" fill="#263238"/><path d="M176.971 432.495a.25.25 0 01-.174-.43 4.268 4.268 0 013.416-1.151c.137.015.236.139.221.275s-.145.23-.276.221c-1.103-.118-2.228.257-3.012 1.015a.25.25 0 01-.174.07zm-.318 2.543a.25.25 0 01-.174-.43 4.259 4.259 0 013.416-1.152.25.25 0 01.221.275.256.256 0 01-.276.221c-1.101-.115-2.227.258-3.013 1.016a.25.25 0 01-.174.07zm-.619 2.955a.25.25 0 01-.174-.43 4.267 4.267 0 013.416-1.152.25.25 0 01.221.275.259.259 0 01-.276.221 3.784 3.784 0 00-3.013 1.016.25.25 0 01-.174.07z" fill="#fff"/><path d="M182.716 414.789s-6.896-8.433-15.65-19.177c19.205-102.419.565-130.349.565-130.349l-.073-.002c.002-.052.003-.115-.059-.159-4.279-10.263-34.391-3.633-34.391-3.633-1.219 4.255-2.284 10.776-3.036 16.142-1.418 3.119-22.43 49.548-26.194 70.493-2.182 12.145 19.548 35.546 39.083 53.78l-.901 32.07 16.638.677a879.535 879.535 0 003.577-15.584c6.029 5.118 9.999 8.278 9.999 8.278l10.44-12.535zm-51.677-63.914c-1.053-1.703 9.629-27.904 15.513-42.019l-2.485 53.669-.129 4.607c-7.017-8.688-12.329-15.338-12.898-16.258z" fill="#407bff"/><path d="M182.716 414.789s-6.896-8.433-15.65-19.177c19.205-102.419.565-130.349.565-130.349l-.073-.002c.002-.052.003-.115-.059-.159-4.279-10.263-34.391-3.633-34.391-3.633-1.219 4.255-2.284 10.776-3.036 16.142-1.418 3.119-22.43 49.548-26.194 70.493-2.182 12.145 19.548 35.546 39.083 53.78l-.901 32.07 16.638.677a879.535 879.535 0 003.577-15.584c6.029 5.118 9.999 8.278 9.999 8.278l10.44-12.535zm-51.677-63.914c-1.053-1.703 9.629-27.904 15.513-42.019l-2.485 53.669-.129 4.607c-7.017-8.688-12.329-15.338-12.898-16.258z" fill="#fff" opacity=".6"/><path fill="#263238" d="M133.423 255.493l-.168 6.002 34.548 3.626.143-5.078-34.523-4.55z"/><path d="M148.699 264.1l-8.54-1.008.792-6.715 8.54 1.008-.792 6.715zm-7.43-1.883l6.554.773.558-4.73-6.554-.773-.558 4.73z" fill="#fff"/><path d="M134.361 211.64c.893-7.125 5.785-7.566 5.785-7.566s3.98-.276 10.716-.087c5.21.324 10.391 1.017 15.503 2.073 4.846.948 9.617 2.243 14.276 3.877a359.432 359.432 0 00-2.34 6.318c-8.27 22.679-9.322 30.955-10.502 43.805l-34.539-3.963c-.7-24.432.296-37.823 1.102-44.458z" fill="#407bff"/><path d="M145.399 203.639c-4-.216-8.415-.64-10.331.187-4.143.289-22.671 16.069-22.671 16.069l8.481-18.241-10.791-4.029s-17.431 26.34-14.036 36.225c2.597 7.561 24.425-2.688 34.554-7.929-.26 6.471-.131 15.65.084 31.218l-3.52 27.023 2.979-6.636s6.39-41.03 6.136-49.921 9.115-23.966 9.115-23.966z" fill="#263238"/><path d="M121.438 174.429c.554-.753 1.817-.707 1.846.015.029.721.191 3.008.13 4.822-.026.783-.007 1.874.011 2.924.017.123.035.245.034.372l-.014 1.053c.004.519 0 .977-.017 1.305l-.016 1.209a5.789 5.789 0 01-.441 2.101l-3.346 5.715-3.891-.066c-3.214-1.693-1.069-8.086-1.069-8.086l.575-3.662a2.575 2.575 0 012.489-2.175l3.097-.002.005-.049c.117-1.28.054-4.722.608-5.475z" fill="#b97964"/><path d="M170.555 175.234c3.892 2.557 9.672 20.015 1.372 25.233s-29.481.085-31.085-7.802a12.49 12.49 0 014.374-12.267s-1.133-17.327 8.254-18.655c9.386-1.327 14.897 5.954 14.897 5.954s-1.703 4.98 2.189 7.537z" fill="#263238"/><path d="M164.344 192.151l-5.18.033-.004.003-5.228 1.258-.057.22-.436 7.275c-.254 2.142-2.969 3.441-4.484 4.127-.922.475-3.595 5.964 1.001 11.238 1.354 1.564 4.189-.058 6.037-1.148 7.723-5.107 8.349-9.313 8.349-9.313-2.021-2.667-1.077-9.034.002-13.693z" fill="#b97964"/><path d="M170.517 182.617c-3.463 7.807-4.751 11.172-10.272 13.967-8.308 4.191-17.019-1.261-15.963-9.85 1.007-7.711 6.451-19.174 15.376-19.847 8.925-.673 14.32 7.912 10.86 15.73z" fill="#b97964"/><path d="M161.539 179.446a.375.375 0 01-.261-.181c-.884-1.545-2.434-1.563-2.452-1.563a.377.377 0 01-.383-.414.467.467 0 01.461-.413c.081 0 2.027.021 3.124 1.939.109.191.03.447-.176.572-.1.06-.211.078-.312.06zm-12.121-4.873a.313.313 0 01-.13-.235c-.015-.208.152-.415.372-.464 2.207-.487 3.335.728 3.382.782.133.147.098.391-.079.545-.176.154-.426.159-.559.013-.043-.048-.934-.976-2.689-.588a.368.368 0 01-.297-.053z" fill="#263238"/><path d="M153.131 179.752s-2.263 2.673-4.32 4.145a.657.657 0 00-.014 1.053c.89.675 2.18.695 2.18.695l2.155-5.893z" fill="#a24e3f"/><path d="M158.709 180.271c.015-.008.027-.007.042-.016l-1.734-1.008s.25.718.741 1.029c-.343.215-.666.616-.854 1.121-.318.852-.138 1.665.403 1.816.541.151 1.238-.418 1.557-1.27.262-.702.182-1.371-.155-1.671zm-8.137-2.467l.01-.004-1.734-1.008s.283.807.839 1.078c-.336.208-.649.591-.831 1.075-.31.826-.124 1.617.415 1.767.539.15 1.229-.397 1.539-1.222.273-.727.161-1.426-.238-1.685zm.016 10.208c.347.991.606 2.818.606 2.818.171.003.342.007.514.001 2.325-.011 3.414-.78 3.916-1.628a3.01 3.01 0 00.387-1.364c.03-.466-.056-.804-.056-.804-1.242.738-3.412.914-4.574.96-.486.024-.793.016-.793.016z" fill="#263238"/><path d="M151.381 187.995l.201.826c2.189-.016 3.734-.319 4.429-.982.03-.466-.056-.804-.056-.804-1.242.738-3.412.914-4.574.96z" fill="#fff"/><path d="M151.708 190.831c2.325-.011 3.414-.78 3.916-1.628-.792.034-1.746.163-2.588.521a2.87 2.87 0 00-1.327 1.107z" fill="#fd504e"/><path d="M163.699 195.172c8.425-3.972 13.464-25.24.055-28.489s-15.599 11.001-15.599 11.001c4.923-15.387 18.604-5.014 18.604-5.014-1.857 4.768-1.539 12.138-1.539 12.138 1.18 4.599-1.521 10.382-1.52 10.363z" fill="#263238"/><path d="M170.405 166.86c8.461 4.804 5.119 10.5 5.119 10.5s5.499 10.69 3.275 17.472-12.724 7.542-12.724 7.542c10.408-1.186 11.751-12.785 1.272-18.465-8.671-4.697-5.507-14.447-5.507-14.447s3.82-5.278 8.565-2.603z" fill="#263238"/><path d="M161.551 178.969a.25.25 0 01-.235-.165c-2.795-7.712 1.239-10.568 1.412-10.686a.25.25 0 11.282.412c-.16.11-3.879 2.777-1.224 10.104a.25.25 0 01-.235.335zm-20.263 17.277a.25.25 0 01-.202-.102c-1.929-2.631-2.639-5.318-2.11-7.986 1.026-5.174 6.283-8.425 6.506-8.561a.25.25 0 11.26.426c-.053.032-5.295 3.277-6.276 8.234-.5 2.524.182 5.078 2.024 7.59a.25.25 0 01-.202.398z" fill="#263238"/><path d="M170.773 188.267c-1.505 1.385-3.413 1.964-4.968 1.891-2.338-.11-2.337-3.923-.9-5.868 1.293-1.75 3.835-2.401 5.804-1.341 1.94 1.044 1.785 3.734.064 5.317z" fill="#b97964"/><path d="M166.34 186.704a.25.25 0 01-.232-.343 3.471 3.471 0 011.789-1.866 3.423 3.423 0 012.573-.09.25.25 0 01-.175.469 2.913 2.913 0 00-2.193.078 2.964 2.964 0 00-1.529 1.595.25.25 0 01-.232.158z" opacity=".2"/><path d="M112.397 219.895s-.534 4.364-3.876 6.774c0 0 8.21-2.716 5.854-8.432l-1.978 1.658z" style="isolation:isolate" opacity=".2"/><path fill="#b97964" d="M111.145 198.02l3.331-5.452 5.464.839-1.883 7.193-6.912-2.58z"/><path d="M212.546 219.68c-4.686-2.581-25.868-8.908-30.237-10.229a17.657 17.657 0 00-2.242-.519c-2.195-.718-4.614-1.289-7.326-1.67 0 0-7.114 12.38-7.76 25.288-.646 12.907 6.294 72.732 6.294 72.732l10.469-2.646s-6.203-37.182-1.694-75.974l19.499 1.74s-14.6 13.163-14.803 13.532l6.928 7.659s15.566-13.923 19.883-16.787c4.317-2.865 5.064-10.881.989-13.125z" fill="#263238"/><path d="M199.549 228.401s1.86-1.734 5.815-1.351c0 0-2.73-3.216-8.224 1.136l2.408.215z" style="isolation:isolate" opacity=".2"/><g fill="#b97964"><path d="M183.854 248.832s-2.757-.296-4.525 1.164c-1.768 1.459-2.072 4.51-2.699 6.1-.956 2.422 1.627 1.34 2.131 0 .712-1.893.713-1.696.713-1.696.082.949-3.367 8.378-3.104 9.68.263 1.303 1.197.276 1.197.276s-.789 1.827-.151 2.337c.166.132.766.171 1.256-.605 1.102-1.746 3.228-5.53 3.228-5.53-.127.215-2.416 5.072-2.664 5.844-.324 1.009.038 1.651.629 1.819.842.24 3.886-5.686 4.189-5.846 0 0-1.867 3.353-1.265 4.309.602.956 1.892-1.091 2.687-3.112.728-1.852 1.526-5.346 2.084-7.301.688-2.409 1.725-4.13-.065-5.652-1.79-1.521-3.641-1.787-3.641-1.787z"/><path d="M182.006 249.331c.201-.134 4.283-5.755 4.283-5.755l5.153 5.755-3.614 2.61s-6.625-2.744-6.223-2.677"/></g></svg>