<svg xmlns="http://www.w3.org/2000/svg" opacity=".25" width="800" height="800"><path d="M66.667 0L0 66.667M133.333 0L66.667 66.667M200 0l-66.667 66.667M266.667 0L200 66.667M333.333 0l-66.666 66.667M400 0l-66.667 66.667M466.667 0L400 66.667M533.333 0l-66.666 66.667M600 0l-66.667 66.667M666.667 0L600 66.667M733.333 0l-66.666 66.667M800 0l-66.667 66.667M866.667 0L800 66.667m-733.333 0L0 133.333m133.333-66.666l-66.666 66.666M200 66.667l-66.667 66.666m133.334-66.666L200 133.333m133.333-66.666l-66.666 66.666M400 66.667l-66.667 66.666m133.334-66.666L400 133.333m133.333-66.666l-66.666 66.666M600 66.667l-66.667 66.666m133.334-66.666L600 133.333m133.333-66.666l-66.666 66.666M800 66.667l-66.667 66.666m133.334-66.666L800 133.333m-733.333 0L0 200m133.333-66.667L66.667 200M200 133.333L133.333 200m133.334-66.667L200 200m133.333-66.667L266.667 200M400 133.333L333.333 200m133.334-66.667L400 200m133.333-66.667L466.667 200M600 133.333L533.333 200m133.334-66.667L600 200m133.333-66.667L666.667 200M800 133.333L733.333 200m133.334-66.667L800 200m-733.333 0L0 266.667M133.333 200l-66.666 66.667M200 200l-66.667 66.667M266.667 200L200 266.667M333.333 200l-66.666 66.667M400 200l-66.667 66.667M466.667 200L400 266.667M533.333 200l-66.666 66.667M600 200l-66.667 66.667M666.667 200L600 266.667M733.333 200l-66.666 66.667M800 200l-66.667 66.667M866.667 200L800 266.667m-733.333 0L0 333.333m133.333-66.666l-66.666 66.666M200 266.667l-66.667 66.666m133.334-66.666L200 333.333m133.333-66.666l-66.666 66.666M400 266.667l-66.667 66.666m133.334-66.666L400 333.333m133.333-66.666l-66.666 66.666M600 266.667l-66.667 66.666m133.334-66.666L600 333.333m133.333-66.666l-66.666 66.666M800 266.667l-66.667 66.666m133.334-66.666L800 333.333m-733.333 0L0 400m133.333-66.667L66.667 400M200 333.333L133.333 400m133.334-66.667L200 400m133.333-66.667L266.667 400M400 333.333L333.333 400m133.334-66.667L400 400m133.333-66.667L466.667 400M600 333.333L533.333 400m133.334-66.667L600 400m133.333-66.667L666.667 400M800 333.333L733.333 400m133.334-66.667L800 400m-733.333 0L0 466.667M133.333 400l-66.666 66.667M200 400l-66.667 66.667M266.667 400L200 466.667M333.333 400l-66.666 66.667M400 400l-66.667 66.667M466.667 400L400 466.667M533.333 400l-66.666 66.667M600 400l-66.667 66.667M666.667 400L600 466.667M733.333 400l-66.666 66.667M800 400l-66.667 66.667M866.667 400L800 466.667m-733.333 0L0 533.333m133.333-66.666l-66.666 66.666M200 466.667l-66.667 66.666m133.334-66.666L200 533.333m133.333-66.666l-66.666 66.666M400 466.667l-66.667 66.666m133.334-66.666L400 533.333m133.333-66.666l-66.666 66.666M600 466.667l-66.667 66.666m133.334-66.666L600 533.333m133.333-66.666l-66.666 66.666M800 466.667l-66.667 66.666m133.334-66.666L800 533.333m-733.333 0L0 600m133.333-66.667L66.667 600M200 533.333L133.333 600m133.334-66.667L200 600m133.333-66.667L266.667 600M400 533.333L333.333 600m133.334-66.667L400 600m133.333-66.667L466.667 600M600 533.333L533.333 600m133.334-66.667L600 600m133.333-66.667L666.667 600M800 533.333L733.333 600m133.334-66.667L800 600m-733.333 0L0 666.667M133.333 600l-66.666 66.667M200 600l-66.667 66.667M266.667 600L200 666.667M333.333 600l-66.666 66.667M400 600l-66.667 66.667M466.667 600L400 666.667M533.333 600l-66.666 66.667M600 600l-66.667 66.667M666.667 600L600 666.667M733.333 600l-66.666 66.667M800 600l-66.667 66.667M866.667 600L800 666.667m-733.333 0L0 733.333m133.333-66.666l-66.666 66.666M200 666.667l-66.667 66.666m133.334-66.666L200 733.333m133.333-66.666l-66.666 66.666M400 666.667l-66.667 66.666m133.334-66.666L400 733.333m133.333-66.666l-66.666 66.666M600 666.667l-66.667 66.666m133.334-66.666L600 733.333m133.333-66.666l-66.666 66.666M800 666.667l-66.667 66.666m133.334-66.666L800 733.333m-733.333 0L0 800m133.333-66.667L66.667 800M200 733.333L133.333 800m133.334-66.667L200 800m133.333-66.667L266.667 800M400 733.333L333.333 800m133.334-66.667L400 800m133.333-66.667L466.667 800M600 733.333L533.333 800m133.334-66.667L600 800m133.333-66.667L666.667 800M800 733.333L733.333 800m133.334-66.667L800 800m-733.333 0L0 866.667M133.333 800l-66.666 66.667M200 800l-66.667 66.667M266.667 800L200 866.667M333.333 800l-66.666 66.667M400 800l-66.667 66.667M466.667 800L400 866.667M533.333 800l-66.666 66.667M600 800l-66.667 66.667M666.667 800L600 866.667M733.333 800l-66.666 66.667M800 800l-66.667 66.667M866.667 800L800 866.667" stroke-width="3.5" stroke="hsla(203, 89%, 76%, 1.00)" fill="none"/></svg>